<?xml version="1.0" encoding="UTF-8" standalone="no" ?>
<!DOCTYPE svg PUBLIC "-//W3C//DTD SVG 1.1//EN" "http://www.w3.org/Graphics/SVG/1.1/DTD/svg11.dtd">
<svg xmlns="http://www.w3.org/2000/svg" xmlns:xlink="http://www.w3.org/1999/xlink" version="1.1" width="400" height="400" viewBox="0 0 400 400" xml:space="preserve">
<desc>Created with Fabric.js 3.6.2</desc>
<defs>
</defs>
<g transform="matrix(10 0 0 10 200 200)"  >
<path style="stroke: none; stroke-width: 1; stroke-dasharray: none; stroke-linecap: butt; stroke-dashoffset: 0; stroke-linejoin: miter; stroke-miterlimit: 4; fill: rgb(34,28,22); fill-rule: nonzero; opacity: 1;"  transform=" translate(-12, -12)" d="M 8.36 15.33 a 1 1 0 0 0 -0.13 1.4 a 1 1 0 0 0 1.41 0.13 a 3.76 3.76 0 0 1 4.72 0 a 1 1 0 0 0 0.64 0.23 a 1 1 0 0 0 0.64 -1.76 A 5.81 5.81 0 0 0 8.36 15.33 Z m 0.85 -4.79 a 1 1 0 0 0 1.41 0 a 1 1 0 0 0 0 -1.41 a 3.08 3.08 0 0 0 -4.24 0 a 1 1 0 1 0 1.41 1.41 A 1 1 0 0 1 9.21 10.54 Z M 12 2 A 10 10 0 1 0 22 12 A 10 10 0 0 0 12 2 Z m 0 18 a 8 8 0 1 1 8 -8 A 8 8 0 0 1 12 20 Z M 17.62 9.13 a 3.08 3.08 0 0 0 -4.24 0 a 1 1 0 0 0 1.41 1.41 a 1 1 0 0 1 1.42 0 a 1 1 0 0 0 1.41 0 A 1 1 0 0 0 17.62 9.13 Z" stroke-linecap="round" />
</g>
</svg>